<svg xmlns="http://www.w3.org/2000/svg" width="21" height="26" viewBox="0 0 21 26">
  <path id="Path_22" data-name="Path 22" d="M280.836,176.479v-.26c0-.065,0-.065-.065-.13,0-.065-.065-.065-.065-.13s-.065-.065-.065-.13-.066-.065-.066-.13l-.065-.065-7.219-7.8c0-.065-.065-.065-.131-.065l-.065-.065c-.065,0-.065-.065-.131-.065s-.065-.065-.131-.065-.065,0-.131-.065c-.065,0-.065,0-.131-.065h-8.794a3.931,3.931,0,0,0-3.938,3.9v18.2a3.931,3.931,0,0,0,3.938,3.9H276.9a3.931,3.931,0,0,0,3.938-3.9V176.479Zm-7.875-5.135,3.609,3.835h-2.3a1.31,1.31,0,0,1-1.312-1.3Zm3.938,19.5H263.774a1.31,1.31,0,0,1-1.312-1.3v-18.2a1.31,1.31,0,0,1,1.312-1.3h6.562v3.9a3.931,3.931,0,0,0,3.938,3.9h3.938v11.7a1.31,1.31,0,0,1-1.313,1.3Z" transform="translate(-259.836 -167.444)" fill="#58b6b1"/>
</svg>
