<svg xmlns="http://www.w3.org/2000/svg" width="48.003" height="48" viewBox="0 0 48.003 48">
  <g id="nevrolog_icon" data-name="nevrolog icon" transform="translate(-235 -269)">
    <path id="Path_31" data-name="Path 31" d="M244.066,145.382l-.141.141a83.931,83.931,0,0,0-10.39-8.561,1.408,1.408,0,0,0-1.8.16l-3.272,3.272a1.407,1.407,0,0,0-.162,1.8,84.456,84.456,0,0,0,8.56,10.39l-7.771,7.771,1.991,1.99,7.773-7.773a84.031,84.031,0,0,0,10.389,8.559,1.406,1.406,0,0,0,1.8-.16l3.274-3.272h0a1.41,1.41,0,0,0,.16-1.8,83.954,83.954,0,0,0-8.558-10.386l.14-.141h0a1.407,1.407,0,1,0-1.99-1.99Zm-4.244,6.229a80.829,80.829,0,0,1-5.519-6.147l2.5-2.5a77.09,77.09,0,0,1,11.67,11.672l-2.5,2.5a81.286,81.286,0,0,1-6.151-5.524Zm-6.936-11.659c.571.409,1.127.839,1.687,1.263l-2.02,2.02c-.425-.561-.854-1.116-1.264-1.688Zm17,20.192c-.569-.409-1.125-.837-1.684-1.26l2.02-2.02c.423.559.852,1.114,1.26,1.683Z" transform="translate(28.277 132.29)" fill="#a9b0b9"/>
    <path id="Path_32" data-name="Path 32" d="M229.09,160.354c-2.3-1.778-4.3-1.638-5.363-.576a1.438,1.438,0,0,0-.2.247,45.318,45.318,0,0,1-5.579,6.955,26.077,26.077,0,0,1-4.261,3.174,28.282,28.282,0,0,0-4.348,3.221l-.128.128c-3.078,3.078-3.32,6.661-.63,9.35s6.272,2.444,9.349-.633l.127-.128a27.992,27.992,0,0,0,3.222-4.349,26.106,26.106,0,0,1,3.182-4.269,45.585,45.585,0,0,1,6.947-5.57c.092-.057.209-.108.251-.2,1.06-1.064,1.2-3.061-.58-5.361C231.075,162.336,229.067,160.335,229.09,160.354Zm.572,5.329a47.872,47.872,0,0,0-7.2,5.81,28.105,28.105,0,0,0-3.546,4.723,25.8,25.8,0,0,1-2.878,3.915l-.1.1c-1.99,1.99-3.8,2.2-5.369.632s-1.359-3.38.631-5.369l.1-.1a25.641,25.641,0,0,1,3.916-2.877,28.169,28.169,0,0,0,4.731-3.556,47.814,47.814,0,0,0,5.776-7.15,4.1,4.1,0,0,1,2.432,1.465,4.471,4.471,0,0,1,1.5,2.406Z" transform="translate(28.277 132.29)" fill="#58b6b1"/>
  </g>
</svg>
