<svg xmlns="http://www.w3.org/2000/svg" width="41" height="48" viewBox="0 0 41 48">
  <path id="Path_52" data-name="Path 52" d="M282.275,156.511a1.569,1.569,0,0,0-.463-1.109l-3.545-3.508a1.6,1.6,0,0,0-2.24,0l-4.01,3.97a1.584,1.584,0,0,0-2.092.12l-20.384,20.185a1.541,1.541,0,0,0-.122,2.069l-2.572,2.548a1.555,1.555,0,0,0,0,2.216l3.543,3.51a1.6,1.6,0,0,0,2.241,0l2.586-2.56a1.54,1.54,0,0,0,2.076-.106L269.3,171.96a4.8,4.8,0,0,0,.794.292A12.27,12.27,0,0,1,268.6,188a1.557,1.557,0,0,0,0,2.218,1.6,1.6,0,0,0,2.241,0,15.384,15.384,0,0,0,2.74-18.312,4.862,4.862,0,0,0,1.248-.893,16.957,16.957,0,0,1-2.9,20.286,17.417,17.417,0,0,1-23.569.776c-.08-.07-.221-.2-.384-.354H250.6a1.568,1.568,0,1,0,0-3.136h-7.744a1.568,1.568,0,1,0,0,3.136h.806a26.5,26.5,0,0,0,2.615,2.713,20.451,20.451,0,0,0,13.44,4.991c.049,0,.1-.007.148-.007a1.323,1.323,0,0,0,.2.022h18.5a1.568,1.568,0,1,0,0-3.136h-7.944a20.294,20.294,0,0,0,3.548-2.787,20.078,20.078,0,0,0,2-26.243,4.681,4.681,0,0,0-.454-1.663l1.961-1.941a1.54,1.54,0,0,0,.108-2.058l4.025-3.984a1.581,1.581,0,0,0,.461-1.111ZM251.51,183.185l-1.3-1.292,1.437-1.424,1.305,1.292Zm4.662-2.668-3.273-3.24,18.145-17.968,3.275,3.243-.842.834a4.8,4.8,0,0,0-6.911,4.282,4.683,4.683,0,0,0,.495,2.069Zm15.215-11.206a1.638,1.638,0,1,1,1.654-1.639A1.648,1.648,0,0,1,271.388,169.311Zm4.186-9.95-.653-.646-.652-.646,2.875-2.848,1.305,1.29Z" transform="translate(-241.275 -151.435)" fill="#a9b0b9"/>
</svg>
