<svg xmlns="http://www.w3.org/2000/svg" width="56.18" height="48" viewBox="0 0 56.18 48">
  <g id="surgery" transform="translate(-185 -274)">
    <path id="dots" d="M2898.605-7165.81a1.873,1.873,0,0,1-1.622-.936,1.873,1.873,0,0,1,0-1.873,1.872,1.872,0,0,1,1.622-.937h1.873a1.873,1.873,0,0,1,1.622.937,1.873,1.873,0,0,1,0,1.873,1.873,1.873,0,0,1-1.622.936Zm-10.5,0a1.874,1.874,0,0,1-1.622-.936,1.873,1.873,0,0,1,0-1.873,1.873,1.873,0,0,1,1.622-.937h3.819a1.872,1.872,0,0,1,1.622.937,1.873,1.873,0,0,1,0,1.873,1.873,1.873,0,0,1-1.622.936Zm-10.5,0a1.873,1.873,0,0,1-1.622-.936,1.872,1.872,0,0,1,0-1.873,1.872,1.872,0,0,1,1.622-.937h3.819a1.872,1.872,0,0,1,1.622.937,1.873,1.873,0,0,1,0,1.873,1.873,1.873,0,0,1-1.622.936Zm-10.5,0a1.873,1.873,0,0,1-1.622-.936,1.873,1.873,0,0,1,0-1.873,1.872,1.872,0,0,1,1.622-.937h3.818a1.872,1.872,0,0,1,1.622.937,1.87,1.87,0,0,1,0,1.873,1.872,1.872,0,0,1-1.622.936H2867.1Zm-10.5,0a1.872,1.872,0,0,1-1.622-.936,1.873,1.873,0,0,1,0-1.873,1.872,1.872,0,0,1,1.622-.937h3.819a1.873,1.873,0,0,1,1.622.937,1.873,1.873,0,0,1,0,1.873,1.873,1.873,0,0,1-1.622.936Zm-8.555,0a1.873,1.873,0,0,1-1.622-.936,1.874,1.874,0,0,1,0-1.873,1.872,1.872,0,0,1,1.622-.937h1.873a1.872,1.872,0,0,1,1.622.937,1.874,1.874,0,0,1,0,1.873,1.873,1.873,0,0,1-1.622.936Z" transform="translate(-2661.171 7487.811)" fill="#58b6b1"/>
    <path id="knife" d="M2853.074-7174.264a1.872,1.872,0,0,1-1.324-.548,1.874,1.874,0,0,1-.548-1.324,1.872,1.872,0,0,1,.548-1.324l17.4-17.4a1.824,1.824,0,0,1-.01-.968,1.821,1.821,0,0,1,.488-.835l15.229-15.229a6.51,6.51,0,0,1,4.635-1.92v0a6.553,6.553,0,0,1,4.635,1.92,6.553,6.553,0,0,1,1.92,4.634,6.555,6.555,0,0,1-1.92,4.635l-15.224,15.226a1.871,1.871,0,0,1-1.324.548,1.873,1.873,0,0,1-1.324-.548l-.323-.323-3.184,5.082a1.852,1.852,0,0,1-.263.332,27.277,27.277,0,0,1-8.9,5.964,27.275,27.275,0,0,1-10.435,2.076Zm5.06-4.281a23.538,23.538,0,0,0,11.553-6.26l3.518-5.631-1.592-1.592Zm29.37-30.7h0l-13.9,13.9,3.973,3.972,13.9-13.9h0a2.809,2.809,0,0,0,.823-1.986,2.807,2.807,0,0,0-.823-1.986,2.874,2.874,0,0,0-1.986-.8A2.875,2.875,0,0,0,2887.5-7209.242Z" transform="translate(-2661.171 7487.811)" fill="#a9b0b9"/>
  </g>
</svg>
