<svg xmlns="http://www.w3.org/2000/svg" width="43" height="48" viewBox="0 0 43 48">
  <g id="surgery2" transform="translate(-185 -274.001)">
    <path id="Path_96" data-name="Path 96" d="M248.033,152.06h-.756l-2.47-1.6a1.426,1.426,0,0,0-.453-1.435,15.1,15.1,0,0,0-8.841-3.367,10.631,10.631,0,0,0-1.736.15c-2.214-4.71-5.788-7.521-10.144-7.94a1.4,1.4,0,0,0-1.536,1.278,1.415,1.415,0,0,0,1.268,1.547c3.988.384,6.345,3.263,7.695,5.973a11.081,11.081,0,0,0-1.453.832c-.955-1.805-2.862-4.377-6.165-4.881a1.419,1.419,0,0,0-.422,2.806c2.442.373,3.817,2.739,4.378,3.979-4.2,4.625-2.888,10.878-2.827,11.157a1.411,1.411,0,0,0,1.376,1.111c.046,0,.088,0,.132-.006v1.976h-2.714a1.418,1.418,0,0,0,0,2.836h4.123a1.414,1.414,0,0,0,1.409-1.418v-3.6a20.272,20.272,0,0,0,2.056-.375l4.337,17.314H223.406a1.418,1.418,0,0,0,0,2.836h13.1a16.569,16.569,0,0,0,11.527,4.627,16.9,16.9,0,0,0,0-33.8ZM227.179,158.8a9.891,9.891,0,0,1,2.9-8.09,7.953,7.953,0,0,1,5.433-2.209,11.566,11.566,0,0,1,5.933,1.923c-2.863,3.692-7.281,7.925-14.268,8.376Zm20.854,24.23a13.782,13.782,0,0,1-9.663-3.932l-4.728-18.876a19.9,19.9,0,0,0,2.995-1.506l15.626,23.652a13.851,13.851,0,0,1-4.23.662Zm6.851-1.819L238.942,157.08a28.368,28.368,0,0,0,4.24-4.3l2.918,1.888a1.407,1.407,0,0,0,.762.225h1.17a14.075,14.075,0,0,1,6.851,26.313Zm-8.021-22.492a2.046,2.046,0,1,0,2.033,2.046A2.039,2.039,0,0,0,246.863,158.716Z" transform="translate(-36.822 136.137)" fill="#a9b0b9"/>
  </g>
</svg>
