<svg xmlns="http://www.w3.org/2000/svg" width="48" height="48" viewBox="0 0 48 48">
  <g id="cardiolog_icon" data-name="cardiolog icon" transform="translate(-272 -268)">
    <rect id="Rectangle_73" data-name="Rectangle 73" width="48" height="48" transform="translate(272 268)" fill="none"/>
    <path id="Path_27" data-name="Path 27" d="M255.492,215.062a38.981,38.981,0,0,1-7.583,3.913c-2.683-1.014-16.4-6.724-16.4-17.4a8.424,8.424,0,0,1,8.3-8.53,8.229,8.229,0,0,1,6.893,3.788,1.485,1.485,0,0,0,2.414,0,8.23,8.23,0,0,1,6.893-3.788,8.425,8.425,0,0,1,8.3,8.53,12.3,12.3,0,0,1-.424,3.2,1.5,1.5,0,0,0,1.012,1.84,1.451,1.451,0,0,0,1.788-1.042,15.377,15.377,0,0,0,.53-4,11.377,11.377,0,0,0-11.2-11.518,11.05,11.05,0,0,0-8.1,3.564,11.036,11.036,0,0,0-8.1-3.564,11.377,11.377,0,0,0-11.2,11.518c0,13.921,18.083,20.15,18.853,20.41a1.426,1.426,0,0,0,.451.072,1.443,1.443,0,0,0,.452-.072,40.551,40.551,0,0,0,8.721-4.417,1.521,1.521,0,0,0,.423-2.068,1.431,1.431,0,0,0-2.012-.434Z" transform="translate(43.395 85.947)" fill="#a9b0b9"/>
    <path id="Path_28" data-name="Path 28" d="M269.152,209.441h-3.807a1.449,1.449,0,0,0-1.3.819l-1.526,3.111-3.215-10.252a1.464,1.464,0,0,0-1.272-1.03,1.435,1.435,0,0,0-1.41.816l-2.717,5.539h-2.913a1.494,1.494,0,0,0,0,2.988H254.8a1.449,1.449,0,0,0,1.3-.821l1.527-3.111,3.215,10.251a1.464,1.464,0,0,0,1.271,1.031c.038,0,.076,0,.112,0a1.449,1.449,0,0,0,1.3-.821l2.717-5.537h2.914a1.494,1.494,0,0,0,0-2.987Z" transform="translate(43.395 85.947)" fill="#58b6b1"/>
  </g>
</svg>
