<svg xmlns="http://www.w3.org/2000/svg" width="65.058" height="48" viewBox="0 0 65.058 48">
  <path id="Path_95" data-name="Path 95" d="M262.758,187.112a20.705,20.705,0,0,0-8.072-1.921,24.025,24.025,0,0,0-1.849-14.057,1.814,1.814,0,0,0-1.767-1.021,23.106,23.106,0,0,0-10.011,3.28,25.249,25.249,0,0,0-8.787-11,1.8,1.8,0,0,0-2.04,0,25.3,25.3,0,0,0-8.79,11.008,23.075,23.075,0,0,0-10.006-3.289,1.8,1.8,0,0,0-1.767,1.021,24.014,24.014,0,0,0-1.849,14.055,20.722,20.722,0,0,0-8.072,1.923,1.807,1.807,0,0,0-1.021,1.767c.539,7.04,5.111,13.856,11.932,17.792a24.864,24.864,0,0,0,12.39,3.405h0a21.043,21.043,0,0,0,8.2-1.653,21.016,21.016,0,0,0,8.2,1.653,24.876,24.876,0,0,0,12.39-3.405c6.821-3.938,11.393-10.757,11.931-17.792a1.8,1.8,0,0,0-1.016-1.768Zm-12.671-13.253c2.3,5.858,1.581,13.132-1.985,19.305a23.83,23.83,0,0,1-10.529,9.757,29.1,29.1,0,0,0,5.885-17.736,30.347,30.347,0,0,0-1.164-8.321,20.029,20.029,0,0,1,7.793-3Zm-18.832-7.732c5.327,4.2,8.59,11.371,8.59,19.058s-3.263,14.857-8.59,19.054c-5.327-4.2-8.59-11.371-8.59-19.054S225.928,170.325,231.255,166.126Zm-18.832,7.732a20.059,20.059,0,0,1,7.791,3.014,30.337,30.337,0,0,0-1.162,8.31,29.117,29.117,0,0,0,5.876,17.725,23.807,23.807,0,0,1-10.52-9.745c-3.566-6.173-4.288-13.447-1.985-19.3Zm10.631,32.605a21.258,21.258,0,0,1-10.584-2.922c-5.385-3.11-9.116-8.262-9.987-13.676a17.618,17.618,0,0,1,6.138-1.108,28.571,28.571,0,0,0,2.659,6.212,27.5,27.5,0,0,0,12.59,11.462c-.27.011-.54.032-.816.032Zm26.988-2.922a21.265,21.265,0,0,1-10.584,2.922c-.276,0-.543-.022-.817-.033a27.5,27.5,0,0,0,12.59-11.462,28.509,28.509,0,0,0,2.658-6.212,17.591,17.591,0,0,1,6.137,1.111c-.868,5.412-4.6,10.566-9.985,13.675Z" transform="translate(-198.723 -162.078)" fill="#a9b0b9"/>
</svg>
