<svg xmlns="http://www.w3.org/2000/svg" width="70.858" height="48" viewBox="0 0 70.858 48">
  <path id="Path_94" data-name="Path 94" d="M9642.85-8593.376a10.3,10.3,0,0,1-10.286-10.285v-4.571a10.278,10.278,0,0,1,2.046-6.165l-1.756-.219a5.556,5.556,0,0,1-4.861-5.506,5.512,5.512,0,0,1,1.625-3.923l.333-.334-1.016-1.523a5.59,5.59,0,0,1-.942-3.111,5.6,5.6,0,0,1,3.45-5.177,5.387,5.387,0,0,1,5.359-4.9,5.356,5.356,0,0,1,4.813,2.974l.1.188a4.939,4.939,0,0,1,1.108-.546l.217-.072.3-1.191a4.793,4.793,0,0,1,4.658-3.638,4.794,4.794,0,0,1,4.658,3.637l.283,1.136,1.009.252a4.955,4.955,0,0,1,3.378,2.934,34.715,34.715,0,0,1,19.03-5.672,23.943,23.943,0,0,1,10.66,2.517,13.08,13.08,0,0,1,7.269,11.763,13.047,13.047,0,0,1-1.67,6.393,6.969,6.969,0,0,1,.794,1.13h0a10.345,10.345,0,0,1,5.448,9.056v4.571a10.3,10.3,0,0,1-10.286,10.285Zm0-2.284h45.715a8.012,8.012,0,0,0,7.671-5.743,10.255,10.255,0,0,1-7.671,3.457h-45.715a10.256,10.256,0,0,1-7.672-3.457A8.013,8.013,0,0,0,9642.852-8595.66Zm-8-12.572a8.01,8.01,0,0,0,8,8h45.715a8.01,8.01,0,0,0,8-8,7.932,7.932,0,0,0-2.292-5.59,6.862,6.862,0,0,1-6.852,6.732h-29.715a6.859,6.859,0,0,1-6.457-4.571h-8.4a1.144,1.144,0,0,0-1.143,1.144,1.144,1.144,0,0,0,1.143,1.143h8v2.285h-3.429a1.143,1.143,0,0,0-1.143,1.143,1.144,1.144,0,0,0,1.143,1.144h21.716v2.285h-21.716a3.433,3.433,0,0,1-3.429-3.429,3.392,3.392,0,0,1,.21-1.143h-1.353a3.432,3.432,0,0,1-3.429-3.428,3.429,3.429,0,0,1,2.038-3.129,6.882,6.882,0,0,1-1.426-2.055A7.95,7.95,0,0,0,9634.852-8608.232Zm18.285-5.715a4.576,4.576,0,0,0,4.571,4.572h29.715a4.577,4.577,0,0,0,4.572-4.572,4.545,4.545,0,0,0-.753-2.471,13.125,13.125,0,0,1-10.112,4.757,33.54,33.54,0,0,1-8.142-1l-3.359-.84c-.163-.041-.328-.056-.492-.091v1.934h-2.286v-2.235c-.276-.015-.552-.051-.828-.051h-1.139a5.672,5.672,0,0,1-2.6-.648v2.935h-2.286v-5.049a5.7,5.7,0,0,1-.706-1.809h-1.579A4.576,4.576,0,0,0,9653.137-8613.947Zm4.506-16.96-.466.327a4.119,4.119,0,0,0-1.755,3.371,4.135,4.135,0,0,0,2,3.528l1.428.857a5.721,5.721,0,0,1,2.662,3.779,3.454,3.454,0,0,0,3.374,2.812h1.14a17.157,17.157,0,0,1,4.158.513l3.358.84a31.362,31.362,0,0,0,7.589.934A10.878,10.878,0,0,0,9692-8624.811a10.806,10.806,0,0,0-6.006-9.719h0a21.641,21.641,0,0,0-9.637-2.275A32.476,32.476,0,0,0,9657.643-8630.907Zm-15.935,12.389a4.575,4.575,0,0,0,4.571,4.571h4.571a6.864,6.864,0,0,1,6.857-6.856h.043c-.027-.017-.051-.042-.079-.06l-1.427-.857a6.3,6.3,0,0,1-1.584-1.369h-1.524v2.286h-2.285v-2.286h-2.286v6.857h-2.286v-6.857A4.576,4.576,0,0,0,9641.708-8618.519Zm-8-15.191v1.158l-1.156.386a3.318,3.318,0,0,0-2.272,3.152,3.321,3.321,0,0,0,.558,1.844l2.057,3.082-1.658,1.658a3.244,3.244,0,0,0-.956,2.308,3.267,3.267,0,0,0,2.858,3.237l2.641.33a5.709,5.709,0,0,1-.927-3.106,5.677,5.677,0,0,1,2.108-4.4l-.952-5.7,2.256-.376.83,4.978c.145-.039.285-.085.434-.112a5.67,5.67,0,0,1,1.37-2.758,5.475,5.475,0,0,1-1.475-3.732,4.939,4.939,0,0,1,.622-2.389l-.473-.944a3.081,3.081,0,0,0-2.769-1.711A3.1,3.1,0,0,0,9633.708-8633.71Zm3.429,14.049a3.423,3.423,0,0,0,.922,2.322,10.239,10.239,0,0,1,1.394-.6c-.016-.191-.03-.385-.03-.58a6.817,6.817,0,0,1,1.716-4.521,3.37,3.37,0,0,0-.572-.051A3.433,3.433,0,0,0,9637.137-8619.661Zm4.729-5.547a5.555,5.555,0,0,1,1.417.531,6.817,6.817,0,0,1,3-.7h2.076a3.425,3.425,0,0,0-3.219-2.286A3.424,3.424,0,0,0,9641.866-8625.208Zm8.87-.167h2.684a6.328,6.328,0,0,1-.283-1.835,6.4,6.4,0,0,1,2.23-4.846,2.676,2.676,0,0,0-1.976-2.077l-2.339-.586-.616-2.465a2.514,2.514,0,0,0-2.442-1.906,2.516,2.516,0,0,0-2.443,1.906l-.6,2.408-1.407.47h0a2.68,2.68,0,0,0-1.835,2.545,3.217,3.217,0,0,0,.948,2.288l.075.075a5.644,5.644,0,0,1,2.405-.55A5.725,5.725,0,0,1,9650.736-8625.375Zm11.543-1.144c0-4.485,5.021-8,11.429-8s11.429,3.514,11.429,8-5.021,8-11.429,8S9662.279-8622.032,9662.279-8626.519Zm2.285,0c0,3.1,4.188,5.714,9.144,5.714s9.144-2.617,9.144-5.714-4.187-5.715-9.144-5.715S9664.564-8629.615,9664.564-8626.518Z" transform="translate(-9627.992 8641.376)" fill="#a9b0b9"/>
</svg>
