<svg xmlns="http://www.w3.org/2000/svg" width="44.494" height="48" viewBox="0 0 44.494 48">
  <g id="trihilog_icon" data-name="trihilog icon" transform="translate(-393 -269)">
    <path id="Path_38" data-name="Path 38" d="M267.3,181.1a61,61,0,0,0-11.155-1.45,1.481,1.481,0,0,0-1.473,1.322c-.567,5.21-3.579,8.078-8.482,8.078s-7.914-2.869-8.481-8.078a1.483,1.483,0,0,0-1.473-1.322,62.019,62.019,0,0,0-11.156,1.45,1.483,1.483,0,0,0,.694,2.884,64.194,64.194,0,0,1,9.192-1.331c1.133,5.892,5.248,9.363,11.225,9.363s10.095-3.472,11.225-9.364a63.549,63.549,0,0,1,9.194,1.332,1.482,1.482,0,1,0,.689-2.884Z" transform="translate(169.056 124.988)" fill="#a9b0b9"/>
    <path id="Path_39" data-name="Path 39" d="M246.014,186.915a6.419,6.419,0,0,0,5.247-2.378,6.553,6.553,0,0,0,1.016-5.723c-4.406-16.725,7.178-32.268,7.3-32.424a1.482,1.482,0,0,0-2.067-2.084c-10.993,8.2-18.527,25.618-17.92,35.713.235,3.93,3,6.9,6.429,6.9Zm5.8-32.588c-2.719,6.5-4.946,15.586-2.4,25.241a3.621,3.621,0,0,1-.5,3.157,3.484,3.484,0,0,1-2.9,1.222c-1.838,0-3.33-1.765-3.47-4.107-.37-6.165,2.946-16.978,9.268-25.514Z" transform="translate(169.056 124.988)" fill="#58b6b1"/>
  </g>
</svg>
