<svg xmlns="http://www.w3.org/2000/svg" width="85" height="48" viewBox="0 0 85 48">
  <g id="ginecolog_icon" data-name="ginecolog icon" transform="translate(-456 -269)">
    <path id="Path_35" data-name="Path 35" d="M253.238,181.889c-3.931,0-5.871,2.355-7.432,4.246s-2.57,3.125-5.364,2.762a25.638,25.638,0,0,1-9.232-3.187c-3.222-1.648-6.551-3.352-12.136-3.352s-8.914,1.7-12.133,3.352a25.655,25.655,0,0,1-9.233,3.187c-2.786.354-3.813-.881-5.364-2.764s-3.5-4.244-7.431-4.244a8.13,8.13,0,0,0-8.337,8.259c0,3.9,2.6,6.334,5.6,9.146.354.332.721.674,1.1,1.033.013.008,2.9-2.922,2.894-2.921-.4-.385-.8-.755-1.175-1.108-2.9-2.718-4.3-4.116-4.3-6.148a4.041,4.041,0,0,1,4.22-4.149c1.9,0,2.763.942,4.252,2.748,1.426,1.729,3.3,3.987,6.852,4.281.847,9.118,7.13,14.309,11.81,18.167,3.112,2.566,5.8,4.784,5.8,7.086a6.992,6.992,0,0,1-.763,3.318,10.063,10.063,0,0,0-1.029,4.466v1.769a2.058,2.058,0,0,0,4.116,0v-1.769a6.025,6.025,0,0,1,.684-2.815,11.048,11.048,0,0,0,1.109-4.969c0-4.239-3.545-7.16-7.3-10.252-4.541-3.745-9.638-7.958-10.331-15.369a31.487,31.487,0,0,0,8.7-3.291c3.039-1.558,5.666-2.9,10.256-2.9s7.214,1.343,10.255,2.9a31.483,31.483,0,0,0,8.7,3.291c-.694,7.411-5.793,11.623-10.333,15.369-3.753,3.093-7.3,6.015-7.3,10.252a10.992,10.992,0,0,0,1.11,4.969,6.036,6.036,0,0,1,.682,2.815v1.769a2.058,2.058,0,0,0,4.116,0v-1.769a10.037,10.037,0,0,0-1.031-4.466,7.019,7.019,0,0,1-.762-3.318c0-2.3,2.688-4.519,5.8-7.086,4.68-3.858,10.963-9.048,11.81-18.167,3.552-.3,5.425-2.552,6.851-4.281,1.488-1.805,2.354-2.748,4.253-2.748a4.041,4.041,0,0,1,4.22,4.149c0,2.032-1.4,3.43-4.3,6.145-.379.356-.774.724-1.177,1.111-.072.021,2.932,2.9,2.9,2.921.376-.359.745-.7,1.1-1.033,3-2.812,5.6-5.241,5.6-9.146a8.13,8.13,0,0,0-8.337-8.259Z" transform="translate(279.424 87.111)" fill="#a9b0b9"/>
    <path id="Path_36" data-name="Path 36" d="M251.982,197.405a6.331,6.331,0,0,0-2.687-.61,7.469,7.469,0,0,0-7.3,6.895,6.093,6.093,0,0,0,6.169,6.576,7.461,7.461,0,0,0,7.3-6.894,6.281,6.281,0,0,0-.585-3.045A9.9,9.9,0,0,0,251.982,197.405Zm-1.6,7.777a3.206,3.206,0,0,1-2.222.974,2.063,2.063,0,0,1-1.488-.575,2.1,2.1,0,0,1-.572-1.643,3.36,3.36,0,0,1,3.195-3.034,2.07,2.07,0,0,1,1.488.578,2.092,2.092,0,0,1,.571,1.643,3.215,3.215,0,0,1-.971,2.057Z" transform="translate(279.424 87.111)" fill="#58b6b1"/>
    <path id="Path_37" data-name="Path 37" d="M183.274,200.327a6.314,6.314,0,0,0-.585,3.045,7.461,7.461,0,0,0,7.3,6.894,6.182,6.182,0,0,0,4.4-1.779,6.744,6.744,0,0,0-.4-9.511,7.341,7.341,0,0,0-5.133-2.181,6.341,6.341,0,0,0-2.69.61A12.767,12.767,0,0,0,183.274,200.327Zm5.584.578a3.2,3.2,0,0,1,2.222.977,2.665,2.665,0,0,1,.4,3.7,2.073,2.073,0,0,1-1.491.575,3.35,3.35,0,0,1-3.193-3.031,1.984,1.984,0,0,1,2.058-2.221Z" transform="translate(279.424 87.111)" fill="#58b6b1"/>
  </g>
</svg>
