<svg xmlns="http://www.w3.org/2000/svg" width="24" height="48" viewBox="0 0 24 48">
  <path id="Path_41" data-name="Path 41" d="M2943.979-6537.024a.992.992,0,0,0,.191-.047,1.961,1.961,0,0,0,1.266-2.3.058.058,0,0,0,0-.014.045.045,0,0,0,0-.013,18.57,18.57,0,0,1,.065-7.1,13.13,13.13,0,0,0,1.627.078,12.126,12.126,0,0,0,6.93-2.167l.014-.01a17.337,17.337,0,0,0,4.788-5.247,17.12,17.12,0,0,0,1.14-2.341,11.624,11.624,0,0,0,.885-6.4c-.006-.045-.014-.089-.1-.454a1.187,1.187,0,0,0-.566-.758l-.281-.16c-8.475-4.813-15.565-19.845-15.658-20.047a1.241,1.241,0,0,0-.137-.229,1.947,1.947,0,0,0-1.54-.765,1.943,1.943,0,0,0-.854.2,1.958,1.958,0,0,0-1.012,2.268,1.1,1.1,0,0,0,.079.212c.009.018.022.046.042.086,1.272,2.649,5.76,11.442,11.854,17.473a6.273,6.273,0,0,0-.592,1.091,7.663,7.663,0,0,0-.317,4.8,7.616,7.616,0,0,0,2.511,4.087c.134.109.271.212.41.308a12.778,12.778,0,0,1-2.838,2.768,8.541,8.541,0,0,1-4.813,1.5,12.646,12.646,0,0,1-7.073-2.568l-.028-.021a1.926,1.926,0,0,0-1.048-.31,1.935,1.935,0,0,0-1.534.76.72.72,0,0,0-.061.082,1.967,1.967,0,0,0,.427,2.621c.017.014.036.028.054.041a19.313,19.313,0,0,0,3.992,2.121,22.239,22.239,0,0,0-.055,9.024v.007c0,.019.01.039.016.058a1.94,1.94,0,0,0,1.728,1.377,1.836,1.836,0,0,0,.207.012A1.735,1.735,0,0,0,2943.979-6537.024Zm12.46-20.244a4.493,4.493,0,0,1-1.449-2.4,4.531,4.531,0,0,1,.168-2.833C2957.158-6560.642,2957.729-6559.663,2956.439-6557.268Z" transform="translate(-2937 6585)" fill="#a9b0b9"/>
</svg>
