<svg xmlns="http://www.w3.org/2000/svg" width="43" height="48" viewBox="0 0 43 48">
  <g id="surgery2" transform="translate(-185 -274)">
    <path id="Path_46" data-name="Path 46" d="M211.933,198.12a18.854,18.854,0,0,0-18.862,18.8v.916l-5.088,9.473a1.577,1.577,0,0,0,1.395,2.322h3.694v5.824a6.064,6.064,0,0,0,6.067,6.048H206v3.039a1.583,1.583,0,0,0,3.165,0v-4.616a1.58,1.58,0,0,0-1.583-1.577h-8.442a2.9,2.9,0,0,1-2.9-2.892v-7.4a1.58,1.58,0,0,0-1.583-1.577h-2.631l4.027-7.5a1.571,1.571,0,0,0,.188-.745v-1.31a15.7,15.7,0,0,1,31.393,0,15.464,15.464,0,0,1-4.543,10.991,1.577,1.577,0,0,0-.621,1.252v15.329a1.583,1.583,0,0,0,3.165,0V229.828a18.582,18.582,0,0,0,5.163-12.907,18.852,18.852,0,0,0-18.862-18.8Zm-11.727,21.237a2.283,2.283,0,1,0,2.283-2.276A2.28,2.28,0,0,0,200.206,219.357Z" transform="translate(-2.796 75.88)" fill="#a9b0b9"/>
  </g>
</svg>
