<svg xmlns="http://www.w3.org/2000/svg" width="69.001" height="48" viewBox="0 0 69.001 48">
  <g id="ginecolog_icon" data-name="ginecolog icon" transform="translate(-456 -269)">
    <rect id="Rectangle_74" data-name="Rectangle 74" width="48" height="48" transform="translate(456 269)" fill="none"/>
    <path id="Path_45" data-name="Path 45" d="M3811.5-7170a62.236,62.236,0,0,1-31.1-8.336l-.021-.012-.01-.006a7.241,7.241,0,0,1-3.34-6.082,15.975,15.975,0,0,1,2.315-8.84,16.383,16.383,0,0,1,6.08-6.225,8.821,8.821,0,0,1,4.212-1.183,6.064,6.064,0,0,1,3.077.809,37.434,37.434,0,0,0,7.891,3.408,16.64,16.64,0,0,0-1.224,3.437,40.923,40.923,0,0,1-8.494-3.677,2.476,2.476,0,0,0-1.251-.307,5.294,5.294,0,0,0-2.463.728,12.885,12.885,0,0,0-4.666,4.841,12.964,12.964,0,0,0-1.853,6.175c-.012,1.779.519,3.128,1.457,3.7.045.023.168.094.188.107a58.6,58.6,0,0,0,29.2,7.806,58.2,58.2,0,0,0,23.855-5.116,16.392,16.392,0,0,1-6.046-6.205,16.382,16.382,0,0,1-2.341-8.387c.007-.285.033-.561.058-.829v-.006l0-.048a41.838,41.838,0,0,1-5.812,1.9c0,.039.008.077.013.116a14.854,14.854,0,0,0-1.047-3.647,37.4,37.4,0,0,0,10.1-3.991,6.045,6.045,0,0,1,3.073-.8c3.66,0,7.7,2.9,10.292,7.4,3.471,6.024,3.043,12.57-.975,14.9A62.458,62.458,0,0,1,3811.5-7170Zm21.864-27.018a2.436,2.436,0,0,0-1.246.311c-.911.527-1.456,1.779-1.5,3.434a12.893,12.893,0,0,0,1.851,6.467c2.207,3.828,5.245,5.572,7.133,5.572a2.454,2.454,0,0,0,1.246-.311c1.9-1.1,2.216-5.436-.36-9.9C3838.285-7195.274,3835.25-7197.018,3833.364-7197.018Zm4.5,11.522c-1.021,0-2.342-1.056-3.212-2.567-1.1-1.914-1.175-3.945-.163-4.53a1.23,1.23,0,0,1,.627-.161c1.034,0,2.323,1.032,3.208,2.567,1.1,1.912,1.175,3.944.165,4.531A1.227,1.227,0,0,1,3837.859-7185.5Z" transform="translate(-3321 7482)" fill="#a9b0b9"/>
    <path id="Path_44" data-name="Path 44" d="M3810.261-7175.8a11.03,11.03,0,0,1-11.006-11.029,6.621,6.621,0,0,1,.121-1.2,16.631,16.631,0,0,1,1.225-3.438c2.454-4.915,7.4-10.035,8.361-11.011a1.83,1.83,0,0,1,1.3-.521,1.819,1.819,0,0,1,1.3.521c.251.253,6.187,6.268,8.629,11.6a14.943,14.943,0,0,1,1.053,3.685,3.288,3.288,0,0,1,.029.365A11.03,11.03,0,0,1,3810.261-7175.8Zm0-22.733c-3.392,3.706-7.354,9-7.354,11.708a7.369,7.369,0,0,0,7.354,7.368,7.369,7.369,0,0,0,7.353-7.368c0-2.72-3.961-8.007-7.353-11.708Z" transform="translate(-3321 7477)" fill="#58b6b1"/>
  </g>
</svg>
