<svg xmlns="http://www.w3.org/2000/svg" width="67" height="48" viewBox="0 0 67 48">
  <g id="dermatolog_icon" data-name="dermatolog icon" transform="translate(-393 -269)">
    <rect id="Rectangle_75" data-name="Rectangle 75" width="67" height="48" transform="translate(393 269)" fill="none"/>
    <path id="Path_47" data-name="Path 47" d="M2884.993-5933.015a4.03,4.03,0,0,0-3.984-3.956h-.325a2.838,2.838,0,0,0-.488.082c-.082,0-.164.08-.244.08a3.1,3.1,0,0,1-.489.163,4.089,4.089,0,0,0-2.357,3.552,6.987,6.987,0,0,1-6.912,6.861,6.987,6.987,0,0,1-6.91-6.861,4.085,4.085,0,0,0-3.984-3.955,4.085,4.085,0,0,0-3.984,3.955,6.987,6.987,0,0,1-6.911,6.861,6.987,6.987,0,0,1-6.911-6.861,4.085,4.085,0,0,0-3.984-3.955,2.805,2.805,0,0,0-.813.08v-2.987c.243,0,.569-.08.813-.08a6.986,6.986,0,0,1,6.911,6.86,4.085,4.085,0,0,0,3.984,3.956,4.085,4.085,0,0,0,3.984-3.956,6.986,6.986,0,0,1,6.911-6.86,6.986,6.986,0,0,1,6.911,6.86,4.085,4.085,0,0,0,3.984,3.956,4.085,4.085,0,0,0,3.985-3.956,7,7,0,0,1,5.611-6.78l.244-.08a4.592,4.592,0,0,1,1.057-.082,7,7,0,0,1,6.992,6.861,4.013,4.013,0,0,0,3.9,3.956,4.085,4.085,0,0,0,3.984-3.956,6.987,6.987,0,0,1,6.911-6.861,1.777,1.777,0,0,1,.651.082v2.986c-.244,0-.406-.082-.651-.082a4.086,4.086,0,0,0-3.984,3.955,7.144,7.144,0,0,1-6.993,7.022A6.987,6.987,0,0,1,2884.993-5933.015Zm-48.462-11.3v-3.066h66.837v3.066Z" transform="translate(-2443.531 6222.381)" fill="#a9b0b9"/>
    <path id="Path_48" data-name="Path 48" d="M2881.5-5913.319a1.945,1.945,0,0,1,1.951-1.937,1.945,1.945,0,0,1,1.952,1.938,1.944,1.944,0,0,1-1.952,1.938A1.944,1.944,0,0,1,2881.5-5913.319Zm-26.832,0a1.945,1.945,0,0,1,1.951-1.937,1.945,1.945,0,0,1,1.952,1.938,1.945,1.945,0,0,1-1.952,1.938A1.944,1.944,0,0,1,2854.664-5913.319Zm40.248-7.749a1.945,1.945,0,0,1,1.951-1.937,1.945,1.945,0,0,1,1.951,1.937,1.944,1.944,0,0,1-1.951,1.937A1.944,1.944,0,0,1,2894.912-5921.067Zm-53.747,0a1.944,1.944,0,0,1,1.952-1.937,1.944,1.944,0,0,1,1.951,1.937,1.944,1.944,0,0,1-1.951,1.937A1.943,1.943,0,0,1,2841.165-5921.067Zm26.914-.083a1.971,1.971,0,0,1,1.952-1.936,1.971,1.971,0,0,1,1.951,1.936,1.919,1.919,0,0,1-1.951,1.937A1.971,1.971,0,0,1,2868.079-5921.15Z" transform="translate(-2443.531 6222.381)" fill="#58b6b1"/>
  </g>
</svg>
