<svg xmlns="http://www.w3.org/2000/svg" width="50" height="48" viewBox="0 0 50 48">
  <g id="therapy_icon" data-name="therapy icon" transform="translate(-272 -268)">
    <path id="Path_29" data-name="Path 29" d="M263.122,175a7.31,7.31,0,0,0-1.712,14.427,11.884,11.884,0,0,1-23.623-.313c3.542-1.415,13.957-6.2,13.957-13.562V162.62a1.639,1.639,0,0,0-.03-.3,6.672,6.672,0,0,0-5.06-5.863,1.618,1.618,0,0,0-3.219.236v2.357a1.618,1.618,0,0,0,3.048.752,3.421,3.421,0,0,1,2.017,3.109V174.75c-2.251,1.758-6.968,2.868-12.348,2.868h-.068c-5.394-.01-10.121-1.124-12.364-2.868V162.914a3.427,3.427,0,0,1,2.016-3.109,1.618,1.618,0,0,0,3.048-.752v-2.357a1.619,1.619,0,0,0-3.22-.236,6.677,6.677,0,0,0-5.058,5.863,1.62,1.62,0,0,0-.03.3v12.933c0,7.443,10.647,12.255,14.07,13.607a15.124,15.124,0,0,0,30.125.311A7.314,7.314,0,0,0,263.122,175ZM225.058,179.1a31.678,31.678,0,0,0,11.014,1.749h.079a31.38,31.38,0,0,0,11-1.742c-2.551,3.424-8.1,6.1-11.044,7.2-2.944-1.1-8.5-3.787-11.047-7.212Zm38.064,7.315a4.091,4.091,0,1,1,4.111-4.089A4.1,4.1,0,0,1,263.122,186.41Z" transform="translate(51.525 112.919)" fill="#a9b0b9"/>
    <path id="Path_30" data-name="Path 30" d="M263.122,180.361a1.957,1.957,0,1,0,1.967,1.957A1.962,1.962,0,0,0,263.122,180.361Z" transform="translate(51.525 112.919)" fill="#58b6b1"/>
  </g>
</svg>
