<svg xmlns="http://www.w3.org/2000/svg" width="66.324" height="47.661" viewBox="0 0 66.324 47.661">
  <g id="plastic_surgery_icon" data-name="plastic surgery icon" transform="translate(-263.995 -274)">
    <path id="Path_50" data-name="Path 50" d="M253.168,205.866c-2.718-5.724-5.279-11.142-3.222-23.287.292-.178.593-.337.873-.541a11.147,11.147,0,0,0,4.466-7.338,1.863,1.863,0,0,0-3.683-.57,7.5,7.5,0,0,1-8.559,6.257,1.864,1.864,0,0,0-.571,3.684,11.641,11.641,0,0,0,1.744.133,11.333,11.333,0,0,0,1.734-.135c-1.612,11.868,1.163,17.723,3.853,23.394a37.116,37.116,0,0,1,3.814,11.16,1.864,1.864,0,0,0,1.839,1.586,1.833,1.833,0,0,0,.281-.021,1.863,1.863,0,0,0,1.565-2.119,40.771,40.771,0,0,0-4.135-12.2Zm-27.16-25.476a7.509,7.509,0,0,1-8.561-6.258,1.862,1.862,0,1,0-3.68.573,11.191,11.191,0,0,0,5.345,7.908c2.045,12.122-.515,17.533-3.228,23.256a40.743,40.743,0,0,0-4.132,12.2,1.863,1.863,0,0,0,1.565,2.12,1.8,1.8,0,0,0,.28.021,1.859,1.859,0,0,0,1.838-1.586,37.142,37.142,0,0,1,3.815-11.162c2.693-5.669,5.465-11.527,3.853-23.4a11.163,11.163,0,0,0,1.751.146,11.517,11.517,0,0,0,1.727-.132,1.865,1.865,0,0,0-.572-3.685Zm8.517,31.085a1.76,1.76,0,1,0,1.759,1.76A1.76,1.76,0,0,0,234.525,211.475Zm11.15-34.762a1.76,1.76,0,1,0-1.759-1.76A1.762,1.762,0,0,0,245.675,176.713Zm-22.3,0a1.76,1.76,0,1,0-1.76-1.76A1.76,1.76,0,0,0,223.375,176.713Z" transform="translate(62.469 101.447)" fill="#a9b0b9"/>
    <path id="arrows" d="M258.409,199.776a1.25,1.25,0,1,0-2.266-1.058l-1.626,3.48a1.249,1.249,0,0,0,.606,1.663l3.481,1.625a1.25,1.25,0,0,0,1.058-2.266l-.745-.346,4.54-1.647a1.25,1.25,0,1,0-.852-2.35l-4.538,1.647Zm-3.575-9.545a1.25,1.25,0,1,0-2.264-1.061l-1.627,3.476a1.254,1.254,0,0,0-.041.958,1.237,1.237,0,0,0,.647.706l3.481,1.627a1.263,1.263,0,0,0,.529.118,1.251,1.251,0,0,0,.53-2.384l-.745-.346,4.54-1.648a1.25,1.25,0,1,0-.852-2.35l-4.54,1.646ZM209.66,208.266a1.25,1.25,0,1,0-2.265,1.058l.348.747-4.54-1.648a1.25,1.25,0,1,0-.852,2.35l4.538,1.648-.744.346a1.251,1.251,0,0,0,.53,2.384,1.233,1.233,0,0,0,.528-.118l3.481-1.625a1.251,1.251,0,0,0,.647-.706,1.264,1.264,0,0,0-.041-.957Zm-.168-16.591,4.54,1.647-.745.348a1.251,1.251,0,0,0,.53,2.384,1.228,1.228,0,0,0,.529-.119l3.481-1.626a1.248,1.248,0,0,0,.6-1.664l-1.625-3.476a1.251,1.251,0,1,0-2.266,1.061l.346.742-4.54-1.648a1.251,1.251,0,0,0-.855,2.351Zm-3.572,9.547,4.54,1.648-.745.346a1.251,1.251,0,0,0,.53,2.384,1.234,1.234,0,0,0,.529-.118l3.48-1.626a1.246,1.246,0,0,0,.605-1.661l-1.626-3.48a1.25,1.25,0,1,0-2.266,1.058l.348.745-4.538-1.647a1.251,1.251,0,0,0-.857,2.351Zm61.855,7.947a1.25,1.25,0,0,0-1.6-.748l-4.54,1.648.346-.747a1.25,1.25,0,0,0-2.265-1.058l-1.626,3.48a1.25,1.25,0,0,0,.6,1.663l3.481,1.625a1.268,1.268,0,0,0,.528.118,1.251,1.251,0,0,0,.53-2.384l-.744-.346,4.54-1.648a1.253,1.253,0,0,0,.748-1.6Z" transform="translate(62.469 101.447)" fill="#58b6b1"/>
  </g>
</svg>
