<svg xmlns="http://www.w3.org/2000/svg" width="41" height="48" viewBox="0 0 41 48">
  <path id="Path_51" data-name="Path 51" d="M276.067,163.388c-.418-5.727-1.761-12.89-5.789-14.5-2.615-1.046-4.923-.179-7.366.74a18.377,18.377,0,0,1-6.84,1.545,46.911,46.911,0,0,1-5.209-.36,4.863,4.863,0,0,1,.405-.769,6.909,6.909,0,0,0,1.188-3.944,1.5,1.5,0,0,0-3,0,3.991,3.991,0,0,1-.76,2.408,5.957,5.957,0,0,0-.856,1.978c-3.406-.321-6.519-.295-8.688,1.678-2.384,2.166-2.154,4.43-1.865,7.3.327,3.228.774,7.649-1.761,15.346-.9,3.164.043,5.1.99,6.172,2.108,2.383,5.992,2.525,7.749,2.269a6.658,6.658,0,0,0,4.828-3.114,7.3,7.3,0,0,0,.607-6.161,3.523,3.523,0,0,1,.166-3.373,1.431,1.431,0,0,1,1.388-.462c3.352.544,4.4-.6,5.192-1.816.313-.479.428-.659.948-.789.277-.078.918.346,1.429.679,1.119.728,2.808,1.829,4.835.858a3.92,3.92,0,0,0,2.153-4.043,5.316,5.316,0,0,0-4.284-4.462,11.4,11.4,0,0,0-8.917,1.659,2.03,2.03,0,0,1-2.146.355c-.526-.359-.952-1.488-.712-3.511,3.6.558,8.886.886,16.6-1.516,1.021,4.451,1.8,10.362.737,12.072-1.118,1.791-3.154,1.793-6.374,1.582-2.493-.163-5.07-.33-7.035,1.138-2.415,1.8-2.354,4.623-2.289,7.607a19.153,19.153,0,0,1-1.19,8.461,1.494,1.494,0,0,0,1.379,2.075,1.5,1.5,0,0,0,1.379-.9,21.92,21.92,0,0,0,1.432-9.7c-.063-2.811-.041-4.317,1.093-5.164,1.075-.8,3-.677,5.035-.547,3.1.2,6.971.454,9.119-2.983,2.3-3.678-.233-13.922-.764-15.939a1.488,1.488,0,0,0-.745-.937,1.516,1.516,0,0,0-1.2-.093c-9.493,3.274-15.237,2.2-18.667,1.559-2.216-.413-4.127-.769-5.33.81-.6.78-.529,1.822-.4,3.9a34.431,34.431,0,0,1-1.842,15.238,1.5,1.5,0,0,0,2.8,1.057,37.593,37.593,0,0,0,2.031-16.482c-.044-.7-.094-1.465-.084-1.9a6.961,6.961,0,0,1,1.349.146c-.539,4.045.948,5.792,1.971,6.488a4.9,4.9,0,0,0,5.515-.341,8.365,8.365,0,0,1,6.548-1.232,2.331,2.331,0,0,1,2,1.882,1,1,0,0,1-.47,1.044c-.434.208-.832.026-1.89-.664a4.735,4.735,0,0,0-3.806-1.078,4.215,4.215,0,0,0-2.739,2.066c-.361.558-.494.765-2.183.488a4.4,4.4,0,0,0-4.171,1.485c-1.305,1.543-1.563,3.828-.7,6.272a4.365,4.365,0,0,1-.343,3.638,3.637,3.637,0,0,1-2.7,1.708c-1.438.213-3.961-.048-5.061-1.289-.673-.76-.789-1.872-.374-3.338a35.687,35.687,0,0,0,1.877-16.513c-.281-2.768-.311-3.7.9-4.8,1.614-1.468,4.8-1.105,8.489-.683a56.257,56.257,0,0,0,6.406.476,21.446,21.446,0,0,0,7.9-1.737c2.334-.879,3.727-1.345,5.185-.763s3.341,4.056,3.917,11.953c.482,6.6-.934,10.692-4.208,12.161a11.319,11.319,0,0,1-6.432.868c-1.559-.149-3.167-.3-4.655.787-1.051.772-1.012,2.079-.963,3.732a24.176,24.176,0,0,1-1.333,9.479,1.5,1.5,0,0,0,2.831.978,27.153,27.153,0,0,0,1.5-10.547c-.014-.486-.031-1.067-.007-1.394a4.856,4.856,0,0,1,2.339-.073,14.26,14.26,0,0,0,7.954-1.118c4.542-2.034,6.55-7.112,5.968-15.091Z" transform="translate(-235.167 -144.61)" fill="#a9b0b9"/>
</svg>
