<svg xmlns="http://www.w3.org/2000/svg" width="65" height="48" viewBox="0 0 65 48">
  <path id="cosmetic" d="M262.709,193.422a20.675,20.675,0,0,0-8.059-1.921,24.026,24.026,0,0,0-1.851-14.057,1.815,1.815,0,0,0-1.765-1.021,23.063,23.063,0,0,0-10,3.28,25.24,25.24,0,0,0-8.777-11,1.8,1.8,0,0,0-2.039,0,25.283,25.283,0,0,0-8.782,11.008,23.043,23.043,0,0,0-10-3.289,1.8,1.8,0,0,0-1.765,1.021,24.008,24.008,0,0,0-1.832,14.055,20.7,20.7,0,0,0-8.079,1.923,1.808,1.808,0,0,0-1.021,1.767c.54,7.04,5.108,13.857,11.921,17.792a24.827,24.827,0,0,0,12.379,3.405h0a20.986,20.986,0,0,0,8.194-1.652,20.98,20.98,0,0,0,8.195,1.652,24.834,24.834,0,0,0,12.379-3.405c6.815-3.936,11.383-10.755,11.921-17.792a1.8,1.8,0,0,0-1.019-1.768ZM250.051,180.17a20.947,20.947,0,0,1,.927,11.457,24.939,24.939,0,0,0-7.651,2.217c.059-.778.1-1.56.1-2.349a30.373,30.373,0,0,0-1.163-8.321,19.983,19.983,0,0,1,7.787-3Zm-18.816-7.732c5.323,4.2,8.582,11.371,8.582,19.058s-3.26,14.858-8.582,19.053c-5.322-4.2-8.581-11.371-8.581-19.053S225.912,176.635,231.234,172.438Zm-18.814,7.732a20.03,20.03,0,0,1,7.784,3.014,30.331,30.331,0,0,0-1.161,8.31c0,.788.041,1.569.1,2.344a24.954,24.954,0,0,0-7.637-2.213,20.912,20.912,0,0,1,.911-11.456Zm10.619,32.605a21.216,21.216,0,0,1-10.575-2.922c-5.38-3.108-9.108-8.261-9.976-13.676a17.628,17.628,0,0,1,6.247-1.114,21.193,21.193,0,0,1,10.575,2.924c.175.1.336.217.505.324a27.272,27.272,0,0,0,7.8,13.876,18.105,18.105,0,0,1-4.571.586ZM250,209.855a21.216,21.216,0,0,1-10.575,2.922,18.051,18.051,0,0,1-4.571-.586,27.269,27.269,0,0,0,7.8-13.875c.172-.106.33-.227.505-.328a21.216,21.216,0,0,1,10.575-2.922,17.584,17.584,0,0,1,6.247,1.114c-.868,5.413-4.6,10.566-9.976,13.675Z" transform="translate(-198.733 -168.388)" fill="#a9b0b9"/>
</svg>
