<svg xmlns="http://www.w3.org/2000/svg" width="49" height="48" viewBox="0 0 49 48">
  <path id="Path_93" data-name="Path 93" d="M223.585,142.528a8.6,8.6,0,0,0-6.08,2.518,8.612,8.612,0,0,0-6.079-2.518,8.709,8.709,0,0,0-8.657,8.74c0,10.436,13.738,15.084,14.322,15.277a1.335,1.335,0,0,0,.834,0c.584-.193,14.322-4.841,14.322-15.278a8.713,8.713,0,0,0-8.661-8.739Zm-6.077,21.292c-2.172-.816-12.055-4.953-12.055-12.551a5.963,5.963,0,0,1,10.939-3.353,1.338,1.338,0,0,0,1.114.6h0a1.341,1.341,0,0,0,1.114-.6,5.948,5.948,0,0,1,4.964-2.677,6.013,6.013,0,0,1,5.978,6.032c0,7.579-9.886,11.733-12.055,12.552ZM244.549,136.9V136.9l-.124-.03-.041-.01L243,136.521a27.981,27.981,0,0,1-6.17-2.9,20.651,20.651,0,0,0-4.346-2.1c-3.181-.768-4.624-.453-12.639,1.3l-.223.05a3.534,3.534,0,0,0-2.964,3.768,3.339,3.339,0,0,0,3.431,2.986h6.516a3.474,3.474,0,0,0,1.1,1.824c2.3,1.992,5.364,4.445,6.941,4.826a17.807,17.807,0,0,0,3.368.308,20.79,20.79,0,0,1,3.972.378,1.354,1.354,0,0,0,.626-2.634,23.042,23.042,0,0,0-4.509-.45,16.461,16.461,0,0,1-2.831-.235c-.615-.148-2.7-1.54-5.869-4.29a.711.711,0,0,1-.1-.918c.253-.385.749-.246,1.122-.059,3.009,1.509,4.3,2.309,4.309,2.317a1.334,1.334,0,0,0,1.846-.437,1.361,1.361,0,0,0-.431-1.863c-.056-.034-1.386-.864-4.531-2.441a3.379,3.379,0,0,0-4.535.967h-6.955c-.279-.007-.752-.086-.794-.532-.029-.307.179-.719.86-.868l.225-.048c7.983-1.743,8.942-1.915,11.446-1.309a21.06,21.06,0,0,1,3.66,1.826,29.725,29.725,0,0,0,6.857,3.169c.54.131,1,.242,1.388.307l-.006.026.167.041.01-.041c.916.125,1.4-.056,1.618-.958a1.372,1.372,0,0,0-1.007-1.632ZM222.08,170.637h-6.516a3.458,3.458,0,0,0-1.1-1.824c-2.3-1.992-5.363-4.445-6.941-4.826a17.815,17.815,0,0,0-3.368-.308,20.805,20.805,0,0,1-3.973-.378,1.339,1.339,0,0,0-1.617,1,1.356,1.356,0,0,0,.991,1.633,23.066,23.066,0,0,0,4.509.45,16.468,16.468,0,0,1,2.831.235c.615.148,2.7,1.54,5.869,4.29a.712.712,0,0,1,.1.918c-.255.387-.751.246-1.122.059-3.01-1.51-4.3-2.309-4.31-2.317a1.334,1.334,0,0,0-1.847.437,1.362,1.362,0,0,0,.432,1.863c.056.034,1.384.864,4.53,2.441a4.1,4.1,0,0,0,1.842.469,3.222,3.222,0,0,0,2.695-1.436h6.954c.279.007.753.086.795.532.027.307-.18.719-.862.868l-.225.048c-7.982,1.743-8.942,1.916-11.445,1.309a21.085,21.085,0,0,1-3.661-1.826,29.713,29.713,0,0,0-6.855-3.169c-.54-.131-1-.242-1.389-.307l.007-.026-.167-.041-.011.041c-.913-.125-1.4.056-1.618.958a1.363,1.363,0,0,0,1,1.63l0,.006.125.03.039.01,1.386.335a27.965,27.965,0,0,1,6.169,2.9,20.623,20.623,0,0,0,4.347,2.1,11.951,11.951,0,0,0,2.937.4c1.959,0,4.385-.53,9.7-1.691l.225-.05a3.536,3.536,0,0,0,2.964-3.768,3.333,3.333,0,0,0-3.428-2.986Z" transform="translate(-196.584 -131.132)" fill="#a9b0b9"/>
</svg>
