<svg xmlns="http://www.w3.org/2000/svg" width="58" height="48" viewBox="0 0 58 48">
  <g id="endocrinolog_icon" data-name="endocrinolog icon" transform="translate(-393 -269)">
    <path id="Path_33" data-name="Path 33" d="M275.816,171.651a1.86,1.86,0,0,0-2.189,1.468c-2.718,13.8-17.257,25-25.3,25s-22.586-11.2-25.3-25a1.864,1.864,0,0,0-3.659.717,34.778,34.778,0,0,0,7.291,15.051,166.308,166.308,0,0,1,3.8,26.537,1.863,1.863,0,0,0,1.859,1.765l.1,0a1.865,1.865,0,0,0,1.767-1.951A174.2,174.2,0,0,0,231.585,194c5.641,4.93,12.04,7.842,16.74,7.842s11.1-2.917,16.744-7.845a174.509,174.509,0,0,0-2.6,21.235,1.864,1.864,0,0,0,1.767,1.951l.1,0a1.863,1.863,0,0,0,1.859-1.765,165.935,165.935,0,0,1,3.8-26.532,34.783,34.783,0,0,0,7.294-15.055,1.865,1.865,0,0,0-1.473-2.184Z" transform="translate(173.676 97.386)" fill="#a9b0b9"/>
    <path id="Path_34" data-name="Path 34" d="M253.877,204.669a7.765,7.765,0,0,0-3.878.194,5.033,5.033,0,0,1-3.354,0,7.767,7.767,0,0,0-3.878-.191,5.48,5.48,0,0,0-4.156,5.222c0,4.693,5.7,9.721,9.71,9.721s9.713-5.028,9.713-9.721a5.482,5.482,0,0,0-4.156-5.224Zm-5.556,11.225c-1.928,0-5.982-3.361-5.982-6a1.757,1.757,0,0,1,1.267-1.6,3.226,3.226,0,0,1,.728-.089,5.086,5.086,0,0,1,1.327.244,8.622,8.622,0,0,0,5.324,0,3.8,3.8,0,0,1,2.053-.155,1.755,1.755,0,0,1,1.269,1.6c0,2.642-4.058,6-5.987,6Z" transform="translate(173.676 97.386)" fill="#58b6b1"/>
  </g>
</svg>
