<svg xmlns="http://www.w3.org/2000/svg" width="48.001" height="48" viewBox="0 0 48.001 48">
  <g id="urolog_icon" data-name="urolog icon" transform="translate(-456 -269)">
    <path id="Path_40" data-name="Path 40" d="M294.869,179.843c-.01-.025-.027-.048-.036-.071a1.824,1.824,0,0,0-.888-.888c-.025-.012-.046-.027-.073-.037a1.955,1.955,0,0,0-.612-.157.422.422,0,0,0-.051-.013l-11.532-.812a1.974,1.974,0,1,0-.276,3.938l7.212.508L278.405,192.52a18.756,18.756,0,1,0,2.793,2.791L291.407,185.1l.508,7.212a1.978,1.978,0,0,0,2.108,1.832,1.975,1.975,0,0,0,1.83-2.108l-.812-11.532a.329.329,0,0,0-.013-.05,1.87,1.87,0,0,0-.157-.615Zm-17.783,37.738a14.814,14.814,0,1,1,0-20.95A14.829,14.829,0,0,1,277.086,217.581Z" transform="translate(208.143 91.14)" fill="#a9b0b9"/>
  </g>
</svg>
