<svg xmlns="http://www.w3.org/2000/svg" width="38" height="48" viewBox="0 0 38 48">
  <g id="fiziotherapy_icon" data-name="fiziotherapy icon" transform="translate(-185 -269)">
    <path id="Path_23" data-name="Path 23" d="M253.916,138.919a17.011,17.011,0,0,1-5.748,4.138,18.792,18.792,0,0,0-5.589,3.867c-3.1,3.339-1.877,8.5-.463,14.483,1.374,5.814,2.932,12.4,1.582,19.6,0,.006,0,.013,0,.019a29.567,29.567,0,0,0-.84,3.836,1.368,1.368,0,0,0,1.153,1.555,1.337,1.337,0,0,0,.206.015,1.371,1.371,0,0,0,1.356-1.164A32.181,32.181,0,0,1,248,177.242c1.708-4.146,3.473-8.433,2.24-18.061a31.641,31.641,0,0,0-1.718-6.831,1.373,1.373,0,0,0-2.568.971,29.316,29.316,0,0,1,1.563,6.207c.81,6.33.3,9.977-.685,13.053a72.4,72.4,0,0,0-2.042-11.8c-1.285-5.435-2.3-9.73-.192-12a16.378,16.378,0,0,1,4.837-3.3,19.749,19.749,0,0,0,6.579-4.8,1.371,1.371,0,0,0-2.1-1.767Zm22.793,8a18.781,18.781,0,0,0-5.589-3.867,17.028,17.028,0,0,1-5.748-4.138,1.375,1.375,0,0,0-1.934-.16,1.361,1.361,0,0,0-.161,1.925,19.738,19.738,0,0,0,6.579,4.8,16.376,16.376,0,0,1,4.837,3.3c2.107,2.272,1.092,6.566-.192,12a72.539,72.539,0,0,0-2.057,11.755c-.972-3.066-1.478-6.709-.671-13.011a29.336,29.336,0,0,1,1.563-6.207,1.373,1.373,0,0,0-2.568-.971,31.58,31.58,0,0,0-1.718,6.831c-1.234,9.628.533,13.917,2.24,18.061a32.121,32.121,0,0,1,2.426,8.028,1.372,1.372,0,0,0,1.357,1.164,1.372,1.372,0,0,0,1.359-1.57,29.318,29.318,0,0,0-.838-3.835.2.2,0,0,0,0-.02c-1.351-7.2.208-13.789,1.582-19.6,1.413-5.977,2.633-11.141-.464-14.48Z" transform="translate(-55.645 130.566)" fill="#a9b0b9"/>
    <path id="Path_24" data-name="Path 24" d="M259.644,146.218a1.37,1.37,0,0,0-1.373,1.367v2.278a1.373,1.373,0,0,0,2.746,0v-2.278A1.37,1.37,0,0,0,259.644,146.218Zm0,7.039a1.37,1.37,0,0,0-1.373,1.367V156.9a1.373,1.373,0,0,0,2.746,0v-2.278A1.37,1.37,0,0,0,259.644,153.258Zm0,7.041a1.37,1.37,0,0,0-1.373,1.367v2.278a1.373,1.373,0,0,0,2.746,0v-2.278A1.37,1.37,0,0,0,259.644,160.3Zm0,7.039a1.37,1.37,0,0,0-1.373,1.367v2.278a1.373,1.373,0,0,0,2.746,0V168.7A1.369,1.369,0,0,0,259.644,167.338Zm0,7.04a1.37,1.37,0,0,0-1.373,1.367v2.278a1.37,1.37,0,0,0,1.373,1.367c.759,0,1.373-.612,1.373-3.645A1.37,1.37,0,0,0,259.644,174.378Zm0,7.039a1.37,1.37,0,0,0-1.373,1.367v2.278a1.373,1.373,0,0,0,2.746,0v-2.278A1.37,1.37,0,0,0,259.644,181.417Z" transform="translate(-55.645 130.566)" fill="#58b6b1"/>
  </g>
</svg>
