<svg id="logo" xmlns="http://www.w3.org/2000/svg" width="74" height="63" viewBox="0 0 74 63">
  <path id="Path_72" data-name="Path 72" d="M74,217.348a7.1,7.1,0,0,0-.5-2.528c-2.61-8.823-17.979-15.6-36.554-15.6-19.93,0-36.165,7.8-36.914,17.56-.017.189-.036.379-.036.567v.128s0,.005,0,.008,0,.005,0,.008v.059c0,.086.013.173.016.259.353,9.935,16.748,17.937,36.934,17.937,18.7,0,34.146-6.868,36.6-15.778A7.04,7.04,0,0,0,74,217.551Z" transform="translate(0 -172.748)" fill="#58b6b1"/>
  <path id="Path_73" data-name="Path 73" d="M171.359,292.223h-7.115v-3.358h8.838l-.347,1.73h2.088l.733-3.611H160.878v1.882h1.145v9.24h-1.145v1.882H164c.066,0,6.685,0,6.812-.009,2.908-.138,4.939-1.852,4.939-4.169,0-2.179-1.724-3.587-4.393-3.587m2.1,3.6c0,1.34-.879,2.072-2.68,2.236-.118.005-2.313.011-4.077.015l-2.457.007V294.1h6.685c1.154,0,2.529.3,2.529,1.724" transform="translate(-139.376 -248.749)" fill="#fff"/>
  <path id="Path_74" data-name="Path 74" d="M297.4,288.865v-1.882H282.676v1.882h1.145v9.24h-1.145v1.882h4.475v-1.882h-1.109v-9.24h7.988v9.24h-1.109v1.882H297.4v-1.882h-1.145v-9.24Z" transform="translate(-244.897 -248.749)" fill="#fff"/>
  <rect id="Rectangle_81" data-name="Rectangle 81" width="9.299" height="0.974" transform="translate(0.125 3.696)" fill="#58b6b1"/>
  <rect id="Rectangle_82" data-name="Rectangle 82" width="9.299" height="0.974" transform="translate(64.577 3.696)" fill="#58b6b1"/>
  <path id="Path_75" data-name="Path 75" d="M.435,85.192l1.13-.074q-.015,7.5-.031,15-.55.247-1.1.506v2.213q1.9-1.009,3.832-1.874.006-1,.013-2.01-.537.215-1.073.439.035-7.195.071-14.383,1.581-.094,3.165-.177Q6.378,91.5,6.314,98.178q-.54.2-1.079.4-.008.982-.016,1.964Q7.152,99.713,9.1,99.01q.012-.9.024-1.8-.561.18-1.121.37.076-6.422.152-12.833L9.292,84.7,9.316,82.9q-4.441.031-8.881.075Z" transform="translate(-0.378 -71.863)" fill="#005477"/>
  <path id="Path_76" data-name="Path 76" d="M76.751,94.557l-.071.017q.085-5.211.171-10.414l1.135-.042q.014-.81.028-1.62l-3.99.024L74,84.278l1.134-.049q-.1,6.836-.207,13.688,1.2-.393,2.416-.743c1.1-4.274,2.213-8.281,3.321-12.079l.071,0q-.087,4.842-.174,9.692-.569.123-1.136.254-.014.788-.028,1.575,2-.517,4-.925.013-.737.026-1.474-.571.1-1.141.215.094-5.232.189-10.455l1.136-.031q.013-.736.026-1.472l-3.583.016c-1.1,3.793-2.2,7.8-3.3,12.07" transform="translate(-64.108 -71.485)" fill="#005477"/>
  <path id="Path_77" data-name="Path 77" d="M156.539,82.344l-3.955.013-.026,1.449,1.136-.027q-.085,4.973-.171,9.951-.572.09-1.143.186l-.026,1.451q2.01-.382,4.03-.665.011-.689.021-1.378-.574.072-1.147.15.03-1.862.061-3.723l.75-.067c2.448-.228,4.347-1.92,4.37-4.1.024-2.133-1.7-3.235-3.9-3.238m-.734,5.978-.464.034.075-4.615.675-.013c1.634-.026,2.566.651,2.549,1.925-.02,1.551-1,2.53-2.835,2.668" transform="translate(-131.992 -71.373)" fill="#005477"/>
  <path id="Path_78" data-name="Path 78" d="M222.787,80.495c-2.746-.012-4.013,2.319-4.052,5.729q0,.422-.009.845c-.038,3.418,1.2,5.607,4,5.47,2.8-.109,4.063-2.337,4.059-5.65q0-.411,0-.822c0-3.3-1.247-5.57-3.993-5.572m2.2,6.186c0,2.635-.585,4.441-2.261,4.5s-2.235-1.724-2.212-4.4q0-.2,0-.4c.024-2.677.608-4.521,2.259-4.525s2.216,1.8,2.211,4.435q0,.2,0,.395" transform="translate(-189.495 -69.77)" fill="#005477"/>
  <path id="Path_79" data-name="Path 79" d="M288.273,83.5l1.138,0q.018,4.486.035,8.971-.576-.015-1.152-.024,0,.642,0,1.283,2.111.035,4.221.167-.005-.651-.011-1.3-.657-.036-1.314-.065-.029-4.512-.058-9.023,1.378.009,2.755.022-.253,1.327-.509,2.645.794.021,1.587.046.388-1.988.771-4-3.734-.007-7.469-.009,0,.642,0,1.283" transform="translate(-249.743 -71.264)" fill="#005477"/>
  <path id="Path_80" data-name="Path 80" d="M359.356,86.929c-.069-3.847-1.358-6.468-4.106-6.436s-3.958,2.388-3.914,5.831q.006.43.011.86c.043,3.452,1.336,5.925,4.118,6.385,2.779.49,3.977-1.834,3.908-5.691q-.009-.475-.017-.95M355.441,92.1c-1.667-.245-2.27-2.224-2.311-5.021q0-.21-.006-.42c-.041-2.794.5-4.708,2.15-4.689s2.254,2.068,2.307,5.037q0,.222.008.444c.052,2.973-.483,4.9-2.148,4.649" transform="translate(-304.381 -69.769)" fill="#005477"/>
  <path id="Path_81" data-name="Path 81" d="M425.674,89.714a3.376,3.376,0,0,0,1.925-3.386,3.589,3.589,0,0,0-3.9-3.785l-3.884-.019q.014.755.027,1.51l1.135.034.193,10.742q-.568-.122-1.138-.237l.027,1.512q1.344.3,2.683.656c2.978.819,5.181.075,5.138-3.176a4.1,4.1,0,0,0-2.2-3.851M422.7,84.123l.6.021c1.507.045,2.493.8,2.516,2.23.025,1.611-.838,2.756-2.522,2.532l-.514-.063q-.041-2.361-.083-4.721m.194,11.075q-.042-2.384-.083-4.766.461.069.921.141a2.528,2.528,0,0,1,2.369,2.515c.029,1.906-1.205,2.5-3.206,2.111" transform="translate(-363.707 -71.529)" fill="#005477"/>
  <path id="Path_82" data-name="Path 82" d="M494.038,100.226c-.734-6.049-1.491-11.768-2.267-17.189l-3.634-.03q.01.935.02,1.871l.849.043q-.9,6.6-1.773,12.651-.551-.184-1.1-.359.012.893.024,1.786,1.822.649,3.628,1.408-.009-.97-.017-1.939-.453-.169-.906-.332.184-1.534.37-3.1,1.3.377,2.6.8.218,1.792.434,3.621-.406-.17-.813-.334.007,1.009.013,2.019,1.831.831,3.642,1.788v-2.213q-.532-.25-1.065-.49m-4.583-7.043q.471-3.85.951-7.885l.071,0q.553,4.108,1.094,8.427-1.056-.285-2.116-.547" transform="translate(-421.159 -71.953)" fill="#005477"/>
  <path id="Path_83" data-name="Path 83" d="M93.871,6.888c0-1.484-1.225-2.2-2.733-2.2h-.6V2.153h1.932l-.353,1.861h1.048l.542-2.78H88.64v.919h.754V8.561H88.64V9.48h1.9c1.861,0,3.334-1.037,3.334-2.591M90.537,5.6h.318c1.143,0,1.826.424,1.826,1.3,0,1.048-.73,1.578-2.144,1.649Z" transform="translate(-76.793 -1.069)" fill="#005477"/>
  <path id="Path_84" data-name="Path 84" d="M135.81,8.575c1.826,0,2.651-1.625,2.651-3.993V3.993c0-2.368-.825-3.993-2.651-3.993s-2.651,1.626-2.651,3.993v.589c0,2.368.825,3.993,2.651,3.993m-1.473-4.429c0-1.885.377-3.18,1.473-3.18s1.473,1.3,1.473,3.18v.283c0,1.885-.377,3.181-1.473,3.181s-1.473-1.3-1.473-3.181Z" transform="translate(-115.364)" fill="#005477"/>
  <path id="Path_85" data-name="Path 85" d="M180.385,2.589V2.153h1.107V8.561h-.754V9.48h2.651V8.561h-.754V2.153h.754V1.234h-4.807v.919h.872v.365c0,2.191-.177,5.407-1.343,5.948l.353-1.767h-1.072l-.507,2.78a6.314,6.314,0,0,0,.731.082c2.757,0,2.769-4.617,2.769-6.973" transform="translate(-153.245 -1.069)" fill="#005477"/>
  <path id="Path_86" data-name="Path 86" d="M235.629,6.865c0-1.484-1.225-2.226-2.733-2.226h-.6V2.153h.754V1.234H230.4v.919h.754V8.561H230.4V9.48h1.9c1.861,0,3.334-1.06,3.334-2.615m-3.334-1.308h.318c1.143,0,1.826.448,1.826,1.319,0,1.049-.73,1.6-2.144,1.673Z" transform="translate(-199.606 -1.069)" fill="#005477"/>
  <path id="Path_87" data-name="Path 87" d="M275.452,8.561H274.7V5.71h2.227V8.561h-.754V9.48h2.651V8.561h-.754V2.153h.754V1.234H276.17v.919h.754V4.791H274.7V2.153h.754V1.234H272.8v.919h.754V8.561H272.8V9.48h2.651Z" transform="translate(-236.342 -1.069)" fill="#005477"/>
  <path id="Path_88" data-name="Path 88" d="M326.434,8.561V9.48h2.651V8.561h-.754V2.153h.754V1.234h-2.38l-2.062,6.691H324.6V2.153h.754V1.234H322.7v.919h.754V9.48h1.614l2.074-6.691h.047V8.561Z" transform="translate(-279.573 -1.069)" fill="#005477"/>
  <path id="Path_89" data-name="Path 89" d="M381.967,9.48h2.451V8.561h-.613l.271-1.555h1.756l.283,1.555h-.553V9.48h2.5V8.561h-.73l-1.485-7.327h-2.415v.919h.565L382.71,8.561h-1.85V2.153h.754V1.234h-2.627v.919h.73V8.561h-2.05V2.153h.73V1.234H375.77v.919h.754V8.561h-.754V9.48h5.1l-.354,1.861h1.049l.4-2.056Zm2.957-7.185h.047l.7,3.793h-1.426Z" transform="translate(-325.55 -1.069)" fill="#005477"/>
  <rect id="Rectangle_83" data-name="Rectangle 83" width="74" height="62.853" fill="none"/>
</svg>
